# xmcd
#
# Track frame offsets:
#	150
#	27166
#	46316
#	67669
#	96786
#	121907
#	141276
#	165522
#	200213
#	218346
#	254545
#	276141
#	291561
#	309302
#	330069
#
# Disc length: 4620 seconds
#
# Revision: 3
# Processed by: cddbd v1.5.2PL0 Copyright (c) Steve Scherf et al.
# Submitted via: EZCDAudioConverter 2.5.0.1
#
DISCID=d3120a0f
DTITLE=Gigi D'Agostino - Best Of
DYEAR=1900
DGENRE=Lento Violento
TTITLE0=Gigi D’Agostino - La Passion
TTITLE1=Gigi D’Agostino - Bla, Bla, Bla
TTITLE2=Gigi D’Agostino - The Riddle
TTITLE3=Gigi D’Agostino - I'll Fly With You (L'Amour Toujours)
TTITLE4=Gigi D’Agostino - Elisir (Your Love)
TTITLE5=Gigi D’Agostino - You Spin Me Round (Like A Record)
TTITLE6=Gigi D'Agostino - Star
TTITLE7=Gigi D'Agostino - Another Way
TTITLE8=Gigi D'Agostino - Super
TTITLE9=Gigi D'Agostino - Souvenir
TTITLE10=Gigi D'Agostino - Un Giorno Credi (feat. Edoardo Bennato)
TTITLE11=Gigi D'Agostino - Natale
TTITLE12=Gigi D'Agostino - Chartsengrafs
TTITLE13=Gigi D'Agostino - Techno Fes
TTITLE14=Gigi D'Agostino - Tanzen
EXTD=
EXTT0=
EXTT1=
EXTT2=
EXTT3=
EXTT4=
EXTT5=
EXTT6=
EXTT7=
EXTT8=
EXTT9=
EXTT10=
EXTT11=
EXTT12=
EXTT13=
EXTT14=
PLAYORDER=
